<?xml version="1.0" standalone="no"?>
<!DOCTYPE svg PUBLIC "-//W3C//DTD SVG 20010904//EN"
 "http://www.w3.org/TR/2001/REC-SVG-20010904/DTD/svg10.dtd">
<svg version="1.0" xmlns="http://www.w3.org/2000/svg"
 width="144.000000pt" height="144.000000pt" viewBox="0 0 144.000000 144.000000"
 preserveAspectRatio="xMidYMid meet">

<g transform="translate(0.000000,144.000000) scale(0.100000,-0.100000)"
fill="#000000" stroke="none">
<path d="M152 1076 c-40 -68 -72 -130 -72 -137 0 -8 33 -68 73 -134 l72 -120
145 -3 145 -2 78 130 77 130 -74 127 -74 128 -150 3 -149 3 -71 -125z"/>
<path d="M842 795 c-15 -25 -39 -66 -54 -90 l-28 -45 -108 0 -108 0 -78 -136
-77 -136 67 -117 c37 -64 72 -124 78 -133 10 -16 29 -18 167 -18 l156 0 48 82
c26 46 53 86 59 90 6 4 57 8 112 8 l102 0 76 130 c42 71 76 132 76 135 0 3
-35 66 -77 140 l-78 135 -153 0 -153 0 -27 -45z"/>
</g>
</svg>
